<?xml version="1.0" encoding="utf-8"?>
<!-- Generator: Adobe Illustrator 16.0.0, SVG Export Plug-In . SVG Version: 6.00 Build 0)  -->
<!DOCTYPE svg PUBLIC "-//W3C//DTD SVG 1.1//EN" "http://www.w3.org/Graphics/SVG/1.1/DTD/svg11.dtd" [
	<!ENTITY ns_extend "http://ns.adobe.com/Extensibility/1.0/">
	<!ENTITY ns_ai "http://ns.adobe.com/AdobeIllustrator/10.0/">
	<!ENTITY ns_graphs "http://ns.adobe.com/Graphs/1.0/">
	<!ENTITY ns_vars "http://ns.adobe.com/Variables/1.0/">
	<!ENTITY ns_imrep "http://ns.adobe.com/ImageReplacement/1.0/">
	<!ENTITY ns_sfw "http://ns.adobe.com/SaveForWeb/1.0/">
	<!ENTITY ns_custom "http://ns.adobe.com/GenericCustomNamespace/1.0/">
	<!ENTITY ns_adobe_xpath "http://ns.adobe.com/XPath/1.0/">
]>
<svg version="1.1" id="Calque_1" xmlns:x="&ns_extend;" xmlns:i="&ns_ai;" xmlns:graph="&ns_graphs;"
	 xmlns="http://www.w3.org/2000/svg" xmlns:xlink="http://www.w3.org/1999/xlink" x="0px" y="0px" width="340px" height="156px"
	 viewBox="0 0 340 156" enable-background="new 0 0 340 156" xml:space="preserve">
<metadata>
	<sfw  xmlns="&ns_sfw;">
		<slices></slices>
		<sliceSourceBounds  height="65.028" width="330.423" x="153.289" y="66.986" bottomLeftOrigin="true"></sliceSourceBounds>
	</sfw>
</metadata>
<g>
	<g>
		<path fill="#51A8B0" d="M83.603,110.406l-1.073-2.75h-3.676l-1.073,2.764l-1.409-0.282l3.702-9.041h1.396l3.595,9.068
			L83.603,110.406z M80.718,102.841l-1.368,3.568h2.696L80.718,102.841z"/>
		<path fill="#51A8B0" d="M90.686,110.326v-0.711c-0.497,0.429-1.181,0.791-1.865,0.791c-1.234,0-2.025-0.671-2.025-1.771v-4.48
			h1.341v4.172c0,0.644,0.349,0.872,0.872,0.872c0.698,0,1.369-0.577,1.677-0.846v-4.198h1.341v6.171H90.686z"/>
		<path fill="#51A8B0" d="M96.668,110.406c-1.126,0-1.677-0.657-1.677-1.771v-3.34h-1.02v-1.141h1.02v-1.354h1.342v1.354h1.556
			v1.141h-1.556v3.179c0,0.631,0.375,0.725,0.657,0.725c0.362,0,0.684-0.135,0.912-0.201l0.349,1.087
			C97.996,110.191,97.581,110.406,96.668,110.406z"/>
		<path fill="#51A8B0" d="M102.664,110.393c-1.972,0-3.072-1.422-3.072-3.139c0-1.448,0.912-3.192,3.072-3.192
			c2.187,0,3.019,1.744,3.019,3.179C105.683,108.689,104.771,110.393,102.664,110.393z M102.664,105.269
			c-0.684,0-1.677,0.496-1.677,1.985c0,1.221,0.725,1.945,1.664,1.945c0.832,0,1.637-0.55,1.637-1.959
			C104.288,105.792,103.389,105.269,102.664,105.269z"/>
		<path fill="#51A8B0" d="M111.732,110.326v-4.186c0-0.645-0.335-0.872-0.858-0.872c-0.711,0-1.422,0.563-1.704,0.832v4.226h-1.341
			v-6.171h1.341v0.697c0.496-0.429,1.208-0.777,1.892-0.777c1.234,0,2.025,0.67,2.025,1.771v4.48H111.732z"/>
		<path fill="#51A8B0" d="M118.171,110.393c-1.972,0-3.072-1.422-3.072-3.139c0-1.448,0.912-3.192,3.072-3.192
			c2.187,0,3.018,1.744,3.018,3.179C121.189,108.689,120.277,110.393,118.171,110.393z M118.171,105.269
			c-0.684,0-1.677,0.496-1.677,1.985c0,1.221,0.724,1.945,1.664,1.945c0.832,0,1.636-0.55,1.636-1.959
			C119.794,105.792,118.896,105.269,118.171,105.269z"/>
		<path fill="#51A8B0" d="M130.485,110.326v-4.347c0-0.536-0.335-0.697-0.684-0.697c-0.617,0-1.288,0.43-1.542,0.697v4.347h-1.341
			v-4.347c0-0.523-0.362-0.697-0.711-0.697c-0.63,0-1.328,0.469-1.542,0.697v4.347h-1.342v-6.171h1.342v0.684
			c0.59-0.522,1.301-0.764,1.878-0.764c0.697,0,1.234,0.335,1.489,0.845c0.228-0.241,0.966-0.845,2.052-0.845
			c1.167,0,1.757,0.817,1.757,1.771v4.48H130.485z"/>
		<path fill="#51A8B0" d="M136.911,110.393c-1.972,0-3.072-1.422-3.072-3.139c0-1.448,0.912-3.192,3.072-3.192
			c2.187,0,3.018,1.744,3.018,3.179C139.929,108.689,139.017,110.393,136.911,110.393z M136.911,105.269
			c-0.684,0-1.677,0.496-1.677,1.985c0,1.221,0.724,1.945,1.663,1.945c0.832,0,1.637-0.55,1.637-1.959
			C138.534,105.792,137.636,105.269,136.911,105.269z"/>
		<path fill="#51A8B0" d="M145.872,110.326v-0.711c-0.496,0.429-1.18,0.791-1.864,0.791c-1.234,0-2.026-0.671-2.026-1.771v-4.48
			h1.341v4.172c0,0.644,0.349,0.872,0.872,0.872c0.697,0,1.368-0.577,1.677-0.846v-4.198h1.341v6.171H145.872z"/>
		<path fill="#51A8B0" d="M151.292,110.42c-0.765,0-1.529-0.229-2.039-0.604c0.014,0,0.604-0.993,0.604-0.993
			c0.416,0.269,0.913,0.43,1.422,0.43c0.55,0,0.952-0.229,0.952-0.645c0-0.442-0.563-0.67-1.234-0.979
			c-0.845-0.375-1.502-0.817-1.502-1.851c0-1.181,1.127-1.703,2.039-1.703c0.966,0,1.569,0.268,1.958,0.576l-0.631,0.952
			c-0.308-0.214-0.805-0.402-1.328-0.402c-0.416,0-0.751,0.201-0.751,0.537c0,0.442,0.402,0.563,0.899,0.805
			c0.805,0.375,1.892,0.751,1.892,2.039C153.572,109.775,152.472,110.42,151.292,110.42z"/>
		<path fill="#51A8B0" d="M166.517,110.326v-4.347c0-0.536-0.335-0.697-0.684-0.697c-0.617,0-1.288,0.43-1.542,0.697v4.347h-1.341
			v-4.347c0-0.523-0.362-0.697-0.711-0.697c-0.63,0-1.328,0.469-1.542,0.697v4.347h-1.342v-6.171h1.342v0.684
			c0.59-0.522,1.301-0.764,1.878-0.764c0.698,0,1.234,0.335,1.489,0.845c0.228-0.241,0.966-0.845,2.052-0.845
			c1.167,0,1.758,0.817,1.758,1.771v4.48H166.517z"/>
		<path fill="#51A8B0" d="M174.404,110.514l-0.831-0.765c-0.35,0.241-0.993,0.657-1.852,0.657c-0.979,0-1.811-0.563-1.811-1.677
			c0-1.301,1.167-1.812,2.481-2.053l0.939-0.16v-0.443c0-0.523-0.295-0.858-0.966-0.858c-0.604,0-1.328,0.402-1.637,0.577
			l-0.562-0.939c0.335-0.215,1.261-0.777,2.293-0.777c1.06,0,2.228,0.442,2.228,1.878v3.071l0.63,0.617L174.404,110.514z
			 M173.331,107.429c-0.269,0.066-0.818,0.161-0.818,0.161c-0.671,0.134-1.288,0.469-1.288,1.046c0,0.496,0.35,0.711,0.711,0.711
			c0.363,0,1.061-0.269,1.396-0.497V107.429z"/>
		<path fill="#51A8B0" d="M180.642,105.523c-0.241-0.161-0.455-0.175-0.765-0.175c-0.47,0-0.938,0.497-1.181,0.926v4.052h-1.341
			v-6.171h1.341v0.805c0.363-0.389,0.806-0.912,1.53-0.912c0.429,0,0.724,0.121,0.992,0.228L180.642,105.523z"/>
		<path fill="#51A8B0" d="M183.634,102.907c-0.471,0-0.858-0.389-0.858-0.858c0-0.482,0.388-0.872,0.858-0.872
			c0.482,0,0.872,0.39,0.872,0.872C184.506,102.519,184.116,102.907,183.634,102.907z M182.963,110.326v-6.171h1.341v6.171H182.963z
			"/>
		<path fill="#51A8B0" d="M190.903,110.326v-4.186c0-0.645-0.335-0.872-0.858-0.872c-0.711,0-1.422,0.563-1.703,0.832v4.226H187
			v-6.171h1.342v0.697c0.496-0.429,1.207-0.777,1.892-0.777c1.233,0,2.025,0.67,2.025,1.771v4.48H190.903z"/>
		<path fill="#51A8B0" d="M195.693,107.616c0.067,0.898,0.697,1.623,1.637,1.623c0.59,0,1.126-0.161,1.556-0.335l0.456,1.032
			c-0.536,0.269-1.247,0.47-2.053,0.47c-1.944,0-2.978-1.261-2.978-3.112c0-1.784,1.033-3.219,2.884-3.219
			c1.663,0,2.441,1.261,2.441,2.803v0.738H195.693z M197.115,105.161c-0.926,0-1.314,0.832-1.409,1.476h2.603
			C198.309,105.899,197.96,105.161,197.115,105.161z"/>
		<path fill="#51A8B0" d="M206.827,110.42c-0.766,0-1.529-0.229-2.039-0.604c0.014,0,0.604-0.993,0.604-0.993
			c0.416,0.269,0.912,0.43,1.422,0.43c0.551,0,0.952-0.229,0.952-0.645c0-0.442-0.563-0.67-1.233-0.979
			c-0.846-0.375-1.503-0.817-1.503-1.851c0-1.181,1.127-1.703,2.04-1.703c0.965,0,1.568,0.268,1.957,0.576l-0.63,0.952
			c-0.309-0.214-0.805-0.402-1.327-0.402c-0.416,0-0.752,0.201-0.752,0.537c0,0.442,0.402,0.563,0.899,0.805
			c0.804,0.375,1.891,0.751,1.891,2.039C209.107,109.775,208.008,110.42,206.827,110.42z"/>
		<path fill="#51A8B0" d="M213.829,110.393c-1.972,0-3.072-1.422-3.072-3.139c0-1.448,0.913-3.192,3.072-3.192
			c2.187,0,3.019,1.744,3.019,3.179C216.848,108.689,215.936,110.393,213.829,110.393z M213.829,105.269
			c-0.684,0-1.677,0.496-1.677,1.985c0,1.221,0.725,1.945,1.664,1.945c0.831,0,1.636-0.55,1.636-1.959
			C215.452,105.792,214.554,105.269,213.829,105.269z"/>
		<path fill="#51A8B0" d="M218.994,110.326v-9.672h1.341v9.672H218.994z"/>
		<path fill="#51A8B0" d="M226.761,110.326v-0.711c-0.496,0.429-1.181,0.791-1.864,0.791c-1.234,0-2.025-0.671-2.025-1.771v-4.48
			h1.341v4.172c0,0.644,0.35,0.872,0.872,0.872c0.697,0,1.368-0.577,1.677-0.846v-4.198h1.342v6.171H226.761z"/>
		<path fill="#51A8B0" d="M232.757,110.406c-1.127,0-1.677-0.657-1.677-1.771v-3.34h-1.02v-1.141h1.02v-1.354h1.341v1.354h1.557
			v1.141h-1.557v3.179c0,0.631,0.376,0.725,0.658,0.725c0.362,0,0.685-0.135,0.912-0.201l0.349,1.087
			C234.085,110.191,233.669,110.406,232.757,110.406z"/>
		<path fill="#51A8B0" d="M236.902,102.907c-0.47,0-0.858-0.389-0.858-0.858c0-0.482,0.389-0.872,0.858-0.872
			c0.482,0,0.872,0.39,0.872,0.872C237.774,102.519,237.385,102.907,236.902,102.907z M236.231,110.326v-6.171h1.341v6.171H236.231z
			"/>
		<path fill="#51A8B0" d="M242.871,110.393c-1.972,0-3.071-1.422-3.071-3.139c0-1.448,0.912-3.192,3.071-3.192
			c2.187,0,3.019,1.744,3.019,3.179C245.89,108.689,244.978,110.393,242.871,110.393z M242.871,105.269
			c-0.685,0-1.677,0.496-1.677,1.985c0,1.221,0.725,1.945,1.663,1.945c0.832,0,1.638-0.55,1.638-1.959
			C244.495,105.792,243.596,105.269,242.871,105.269z"/>
		<path fill="#51A8B0" d="M251.939,110.326v-4.186c0-0.645-0.336-0.872-0.859-0.872c-0.711,0-1.422,0.563-1.703,0.832v4.226h-1.341
			v-6.171h1.341v0.697c0.497-0.429,1.208-0.777,1.892-0.777c1.234,0,2.025,0.67,2.025,1.771v4.48H251.939z"/>
		<path fill="#51A8B0" d="M257.252,110.42c-0.766,0-1.529-0.229-2.039-0.604c0.014,0,0.604-0.993,0.604-0.993
			c0.416,0.269,0.912,0.43,1.422,0.43c0.551,0,0.952-0.229,0.952-0.645c0-0.442-0.563-0.67-1.233-0.979
			c-0.846-0.375-1.503-0.817-1.503-1.851c0-1.181,1.127-1.703,2.039-1.703c0.966,0,1.569,0.268,1.958,0.576l-0.63,0.952
			c-0.309-0.214-0.805-0.402-1.328-0.402c-0.415,0-0.751,0.201-0.751,0.537c0,0.442,0.402,0.563,0.899,0.805
			c0.804,0.375,1.891,0.751,1.891,2.039C259.532,109.775,258.433,110.42,257.252,110.42z"/>
	</g>
	<path fill="#51A8B0" d="M80.091,65.135c1.441-0.335,3.063-0.656,4.849-0.914v-5.465c0.204-0.01,0.375-0.023,0.547-0.023
		c5.511,0,11.022-0.007,16.533,0.001c2.298,0.001,4.042,1.383,4.513,3.546c0.196,0.908,0.045,1.841-0.347,2.658
		c2.638,0.463,5.324,1.029,8.02,1.667c0.201,0.048,0.408,0.103,0.61,0.152c0.575-1.976,0.639-4.116,0.145-6.419
		c-1.321-6.17-6.437-10.223-12.784-10.268c-7.135-0.052-14.27-0.014-21.404-0.011c-0.879,0.001-1.72,0.17-2.466,0.662
		c-1.452,0.949-2.083,2.295-2.08,4.029c0.005,3.806,0.001,7.608,0.003,11.415c0.385-0.12,0.783-0.246,1.193-0.377
		C78.261,65.583,79.151,65.364,80.091,65.135"/>
	<path fill="#51A8B0" d="M233.921,67.212l1.58-0.189l0.934-0.105c-1.297-0.695-2.205-2.068-2.304-3.667
		c-0.132-2.124,1.576-4.16,3.725-4.442c0.368-0.045,0.74-0.074,1.11-0.074c6.426-0.009,12.854,0.016,19.283-0.026
		c2.619-0.016,4.608-2.702,3.991-5.244c-0.517-2.118-2.231-3.406-4.566-3.407c-6.304-0.005-12.607-0.016-18.913,0.013
		c-1.052,0.004-2.124,0.103-3.147,0.331c-5.779,1.281-9.796,6.272-10.109,11.781c-0.127,2.211,0.204,4.23,0.984,6.053
		c0.34-0.051,0.68-0.108,1.016-0.163C229.786,67.711,231.779,67.49,233.921,67.212"/>
	<path fill="#51A8B0" d="M301.4,74.196c0-3.747,0.016-7.488-0.006-11.235c-0.013-2.498-2.365-4.503-4.839-4.168
		c-2.249,0.306-3.831,2.104-3.836,4.401c-0.008,3.94-0.002,7.882-0.007,11.823c3.049,1.082,5.933,2.153,8.688,3.156
		C301.399,76.848,301.4,75.523,301.4,74.196"/>
	<path fill="#51A8B0" d="M275.326,62.902c-0.024-2.723-2.768-4.719-5.396-4c-2.018,0.552-3.259,2.237-3.261,4.462
		c-0.002,1.508-0.003,3.012-0.005,4.52c2.998,0.512,5.905,1.122,8.684,1.804C275.349,67.426,275.352,65.164,275.326,62.902"/>
	<path fill="#51A8B0" d="M161.644,77.874l1.174,0.061c-0.127-0.594-0.197-1.21-0.192-1.844c0.025-4.827,3.907-8.705,8.689-8.674
		c4.816,0.033,8.666,3.916,8.646,8.716c-0.002,0.349-0.029,0.688-0.069,1.023c2.854-0.386,5.768-0.873,8.735-1.43
		c-0.069-3.352-1.083-6.687-3.092-9.527c-2.309-3.263-5.362-5.541-9.192-6.69c-4.742-1.425-9.297-0.863-13.728,1.592v-0.739
		c0-3.247,0-6.497-0.001-9.745c0-0.317-0.014-0.634-0.041-0.953c-0.23-2.869-3.298-4.749-5.944-3.594
		c-1.812,0.792-2.686,2.235-2.686,4.227c0.002,8.879,0.001,17.762,0.001,26.646c0.8,0.137,1.598,0.266,2.401,0.382
		C158.113,77.489,159.867,77.778,161.644,77.874"/>
	<path fill="#51A8B0" d="M325.096,86.153c1.096,0.312,2.148,0.612,3.155,0.896c1.011,0.247,1.973,0.483,2.887,0.708
		c0.857,0.198,1.666,0.403,2.441,0.598c2.478-3.994,2.182-9.457-1.208-13.05c-2.224-2.358-4.964-3.537-8.201-3.546
		c-2.861-0.008-5.719,0.006-8.581-0.011c-1.074-0.008-1.877-0.793-2.039-1.922c-0.137-0.966,0.48-1.979,1.438-2.266
		c0.364-0.11,0.763-0.139,1.147-0.14c4.257-0.011,8.512,0.015,12.77-0.021c2.695-0.025,4.702-2.741,4.015-5.347
		c-0.528-2.015-2.203-3.308-4.365-3.315c-4.272-0.014-8.546-0.016-12.817,0.007c-0.756,0.003-1.522,0.083-2.258,0.249
		c-5.845,1.315-9.402,6.626-8.451,12.566c0.772,4.845,5.392,8.834,10.303,8.874c2.95,0.023,5.898,0.008,8.849,0.008
		c0.718,0,1.363,0.19,1.841,0.761c0.582,0.7,0.695,1.494,0.325,2.323c-0.385,0.863-1.094,1.262-2.027,1.262c-1.294,0-2.586,0-3.88,0
		c0.425,0.14,0.849,0.274,1.264,0.407C322.875,85.526,324.008,85.845,325.096,86.153"/>
	<path fill="#51A8B0" d="M133.718,67.417c4.14-0.003,7.621,2.93,8.481,6.825c0.381,0.108,0.758,0.217,1.141,0.326
		c0.895,0.263,1.725,0.427,2.591,0.65c1.709,0.442,3.427,0.84,5.156,1.192c0.001-0.094,0.007-0.192,0.007-0.287
		c0.005-9.544-7.829-17.387-17.369-17.388c-6.48,0-12.183,3.634-15.168,8.953c2.93,0.75,5.909,1.56,8.928,2.394
		C129.067,68.447,131.277,67.422,133.718,67.417"/>
	<path fill="#51A8B0" d="M208.227,67.417c2.546-0.011,4.841,1.106,6.438,2.87c2.013-0.398,4.041-0.767,6.064-1.126
		c1.067-0.17,2.123-0.341,3.187-0.51c-2.714-5.676-8.425-9.692-15.223-9.901c-9.224-0.225-17.309,6.885-17.782,16.535
		c2.979-0.587,6.012-1.237,9.098-1.921C201.164,69.921,204.402,67.436,208.227,67.417"/>
	<path fill="#11537D" d="M76.25,89.396c0.14,2.752,2.884,4.688,5.525,3.893c1.956-0.592,3.121-2.233,3.128-4.453
		c0.007-3.989,0.001-7.982,0.001-11.972v-0.767h0.655c3.266,0,6.536-0.009,9.8,0.011c0.791,0.007,1.589,0.073,2.37,0.201
		c4.843,0.79,8.747,5.301,8.856,10.2c0.023,1.074-0.018,2.158,0.096,3.223c0.218,2.02,1.987,3.63,3.985,3.738
		c2.11,0.112,4.093-1.298,4.469-3.35c0.194-1.08,0.135-2.215,0.13-3.32c-0.02-4.226-1.337-8.026-3.826-11.43
		c-0.44-0.604-0.928-1.179-1.406-1.785c0.217-0.178,0.415-0.326,0.601-0.49c2.087-1.87,3.495-3.987,4.18-6.338
		c-0.202-0.048-0.409-0.104-0.61-0.152c-2.696-0.638-5.38-1.204-8.02-1.667c-0.672,1.396-2.06,2.452-3.653,2.459
		c-5.752,0.035-11.514,0.017-17.271,0.017c-0.1,0-0.2-0.023-0.319-0.036v-3.157c-1.787,0.258-3.409,0.579-4.851,0.914
		c-0.94,0.229-1.83,0.448-2.667,0.65c-0.413,0.133-0.81,0.259-1.195,0.378c0.003,7.533,0.006,15.062,0.006,22.598
		C76.235,88.971,76.238,89.184,76.25,89.396"/>
	<path fill="#11537D" d="M230.276,73.185c2.362,1.964,5.121,2.912,8.199,2.913c4.307,0.001,8.616-0.008,12.926,0.005
		c2.441,0.009,4.413,1.927,4.431,4.269c0.022,2.451-1.912,4.41-4.376,4.414c-7.116,0.001-14.235-0.004-21.354,0.011
		c-0.47,0-0.956,0.035-1.408,0.157c-2.182,0.577-3.479,2.604-3.171,4.891c0.272,2.026,2.163,3.623,4.313,3.625
		c3.688,0.005,7.38,0,11.07,0c3.568,0,7.135,0.021,10.7-0.01c0.844-0.007,1.701-0.086,2.521-0.269
		c5.709-1.256,9.675-5.599,10.295-11.433c0.479-4.534-1.137-8.319-4.58-11.283c-2.432-2.099-5.327-3.049-8.527-3.059
		c-4.326-0.011-8.653,0.013-12.978-0.014c-0.687-0.003-1.333-0.18-1.903-0.487l-0.934,0.106l-1.58,0.189
		c-2.142,0.278-4.135,0.5-6.417,0.86c-0.336,0.055-0.678,0.109-1.016,0.163C227.283,70.095,228.549,71.745,230.276,73.185"/>
	<path fill="#11537D" d="M289.214,109.286c8.785-2.12,12.168-10.117,12.186-20.201c0.006-3.638,0.002-7.274,0.001-10.913
		c-2.755-1.004-5.639-2.075-8.688-3.154c-0.001,0.262,0,0.524-0.001,0.786c0,0.527-0.035,1.059-0.098,1.58
		c-0.762,5.976-7.658,9.336-12.874,6.264c-2.963-1.749-4.37-4.41-4.388-7.815c-0.012-2.047-0.007-4.095-0.005-6.144
		c-2.778-0.682-5.686-1.292-8.682-1.804c-0.004,2.68-0.002,5.359,0.014,8.038c0.004,0.968,0.061,1.948,0.22,2.899
		c0.701,4.232,2.659,7.789,5.964,10.533c4.32,3.59,9.278,4.871,14.782,3.696c1.618-0.347,3.171-1.009,4.715-1.515
		c0.009-0.04-0.002,0.062-0.028,0.156c-0.183,6.188-3.168,9.565-7.875,9.731c-2.587,0.091-4.8-0.806-6.669-2.576
		c-0.889-0.84-1.951-1.305-3.166-1.203c-1.855,0.15-3.17,1.146-3.847,2.869c-0.672,1.707-0.275,3.28,1.019,4.511
		c2.79,2.646,5.821,4.167,9.122,4.714l4.371,0.174C286.562,109.818,287.867,109.611,289.214,109.286"/>
	<path fill="#11537D" d="M153.96,89.394c0.126,1.698,0.974,2.932,2.492,3.652c1.53,0.726,3.039,0.582,4.378-0.451
		c0.568-0.432,0.99-1.06,1.487-1.613c7.986,4.728,17.124,2.308,22.205-3.63c2.802-3.271,4.187-7.458,4.104-11.627
		c-2.971,0.56-5.882,1.046-8.735,1.432c-0.517,4.376-4.175,7.661-8.724,7.63c-4.1-0.032-7.527-2.97-8.35-6.853l-1.174-0.061
		c-1.776-0.096-3.533-0.385-5.298-0.549c-0.802-0.115-1.603-0.245-2.401-0.381c0,3.99,0.001,7.982,0.001,11.975
		C153.945,89.075,153.95,89.237,153.96,89.394"/>
	<path fill="#11537D" d="M308.073,84.96c-2.18,0.587-3.477,2.617-3.157,4.897c0.28,2.025,2.174,3.61,4.327,3.612
		c2.579,0.005,5.159,0,7.737,0c2.384,0,4.768-0.012,7.152,0.005c2.578,0.021,4.87-0.76,6.925-2.325
		c1.034-0.787,1.869-1.742,2.521-2.792c-0.774-0.196-1.583-0.401-2.44-0.598c-0.914-0.227-1.876-0.463-2.887-0.71
		c-1.007-0.284-2.06-0.585-3.155-0.896c-1.088-0.31-2.221-0.627-3.395-0.959c-0.415-0.133-0.839-0.27-1.264-0.407
		c-3.65,0-7.303-0.001-10.955,0.007C309.013,84.799,308.524,84.84,308.073,84.96"/>
	<path fill="#11537D" d="M133.696,93.47c9.471,0.009,17.229-7.64,17.39-17.06c-1.729-0.352-3.447-0.75-5.155-1.195
		c-0.868-0.22-1.697-0.384-2.591-0.647c-0.384-0.109-0.761-0.218-1.142-0.326c0.132,0.601,0.208,1.221,0.208,1.862
		c0.002,4.805-3.873,8.683-8.676,8.683c-4.804,0-8.69-3.874-8.697-8.67c-0.003-2.337,0.935-4.466,2.45-6.035
		c-3.019-0.834-5.998-1.644-8.928-2.394c-1.406,2.507-2.212,5.385-2.207,8.437C116.366,85.657,124.172,93.468,133.696,93.47"/>
	<path fill="#11537D" d="M207.35,93.455c9.556,0.541,17.832-6.977,18.242-16.568c0.127-2.946-0.49-5.751-1.677-8.237
		c-1.063,0.169-2.119,0.34-3.187,0.512c-2.021,0.357-4.052,0.728-6.064,1.125c1.412,1.553,2.274,3.609,2.263,5.861
		c-0.021,4.805-3.902,8.649-8.718,8.639c-4.79-0.011-8.686-3.933-8.656-8.712c0.005-0.949,0.171-1.857,0.455-2.711
		c-3.086,0.684-6.12,1.334-9.098,1.921c-0.005,0.063-0.011,0.123-0.014,0.185C190.533,84.835,197.722,92.911,207.35,93.455"/>
	<g>
		<path fill="#51A8B0" d="M29.375,64.741c-1.248,0.624-1.759,2.136-1.139,3.387c0.62,1.25,2.136,1.757,3.383,1.136
			c2.202-1.093,4.829-1.084,7.026,0.019c0.987,0.499,2.154,0.283,2.902-0.451c0.194-0.189,0.359-0.413,0.487-0.668
			c0.625-1.247,0.125-2.765-1.123-3.391C37.306,62.956,32.991,62.947,29.375,64.741"/>
	</g>
	<g>
		<path fill="#51A8B0" d="M48.039,62.562c0.101-0.101,0.195-0.21,0.283-0.333c0.813-1.13,0.556-2.709-0.578-3.524
			c-7.45-5.358-17.511-5.422-25.03-0.163c-1.142,0.799-1.421,2.374-0.62,3.518c0.798,1.142,2.372,1.419,3.514,0.622
			c5.764-4.033,13.478-3.985,19.188,0.123C45.809,63.533,47.178,63.404,48.039,62.562"/>
	</g>
	<g>
		<path fill="#51A8B0" d="M19.214,56.021c4.55-3.578,10.259-5.527,16.075-5.486c5.813,0.039,11.497,2.066,15.997,5.702
			c1.006,0.812,2.45,0.725,3.352-0.16c0.068-0.068,0.135-0.142,0.197-0.217c0.876-1.086,0.709-2.676-0.377-3.551
			c-5.386-4.354-12.181-6.775-19.132-6.822c-6.956-0.049-13.786,2.283-19.234,6.565c-1.093,0.863-1.286,2.449-0.421,3.543
			C16.53,56.693,18.116,56.883,19.214,56.021"/>
	</g>
	<path fill="#11537D" d="M7.658,55.917c-0.115,0.003-0.374,0.14-0.582,0.439c-0.242,0.344-0.243,0.646-0.204,0.707l3.071,2.152
		l-0.274,0.422C6.357,64.73,4.671,70.649,4.795,76.756c0.15,7.465,3.041,14.587,8.139,20.051c0.082,0.104,0.134,0.17,0.191,0.23
		c5.772,6.1,13.592,9.458,22.016,9.461c0.001,0,0.002,0,0.002,0c7.704,0,15.04-2.887,20.656-8.13
		c0.117-0.089,0.181-0.142,0.239-0.195c5.504-5.208,8.839-12.242,9.39-19.801c0.548-7.505-1.69-14.897-6.302-20.812
		c-0.659-0.844-1.963-1.008-2.812-0.347c-0.87,0.679-1.027,1.939-0.348,2.809c4.001,5.133,5.942,11.549,5.467,18.061
		c-0.471,6.484-3.315,12.541-8.012,17.05c-0.11,0.088-0.166,0.135-0.22,0.185c-4.89,4.628-11.305,7.179-18.058,7.179
		c0,0-0.001,0-0.001,0c-7.237,0-13.977-2.865-18.974-8.072c-0.083-0.105-0.13-0.162-0.18-0.216
		c-4.503-4.759-7.057-10.985-7.189-17.531c-0.104-5.237,1.324-10.32,4.13-14.703l0.294-0.458l4.227,2.961l-0.263,0.421
		c-2.295,3.65-3.408,7.859-3.217,12.17c0.216,4.997,2.211,9.77,5.617,13.443c0.087,0.112,0.14,0.177,0.198,0.241
		c4.021,4.247,9.476,6.591,15.354,6.591c5.351,0,10.453-1.999,14.367-5.629c0.11-0.085,0.176-0.137,0.238-0.195
		c3.708-3.512,6.022-8.247,6.51-13.333c0.48-5.033-0.853-10.071-3.756-14.184c-0.612-0.87-1.916-1.101-2.792-0.483
		c-0.9,0.636-1.116,1.89-0.48,2.792c2.351,3.333,3.43,7.415,3.038,11.496c-0.386,4.05-2.215,7.842-5.15,10.677
		c-0.105,0.085-0.158,0.131-0.212,0.181c-3.182,3.013-7.361,4.675-11.762,4.675c-4.691,0-9.065-1.85-12.317-5.208
		c-0.084-0.106-0.129-0.162-0.176-0.212c-2.836-2.997-4.496-6.911-4.677-11.023c-0.147-3.402,0.707-6.737,2.468-9.644l0.289-0.478
		l3.892,2.727l-0.241,0.413c-2.688,4.624-2.045,10.613,1.563,14.57c0.086,0.116,0.139,0.181,0.199,0.244
		c2.357,2.491,5.552,3.864,8.994,3.864c3.097,0,6.059-1.146,8.34-3.225c0.119-0.091,0.188-0.146,0.252-0.206
		c4.035-3.821,5.032-9.915,2.419-14.815c-0.505-0.945-1.753-1.335-2.709-0.826c-0.809,0.434-1.223,1.374-1,2.255
		c0.818,1.337,1.25,2.862,1.25,4.417c0,4.688-3.815,8.504-8.505,8.504s-8.503-3.815-8.503-8.504c0-2.039,0.72-3.976,2.038-5.516
		L7.658,55.917z"/>
	<g>
		<path fill="#51A8B0" d="M33.946,73.213c-0.026,0.01-0.05,0.025-0.075,0.036c-1.127,0.504-1.918,1.631-1.918,2.944
			c0,0.875,0.353,1.667,0.918,2.249c0.091,0.092,0.192,0.172,0.292,0.253c0.059,0.046,0.113,0.1,0.175,0.144
			c1.227,0.845,2.914,0.75,4.038-0.312c1.292-1.226,1.348-3.262,0.124-4.552c-0.253-0.269-0.541-0.48-0.85-0.642
			c-0.019-0.009-0.035-0.02-0.055-0.03c-0.127-0.062-0.259-0.112-0.391-0.157c-0.059-0.02-0.119-0.037-0.179-0.057
			c-0.112-0.028-0.226-0.055-0.341-0.074c-0.1-0.015-0.2-0.024-0.303-0.03c-0.087-0.006-0.176-0.015-0.265-0.015
			C34.703,72.98,34.307,73.063,33.946,73.213z"/>
	</g>
</g>
</svg>
